<?xml version="1.0" encoding="utf-8" ?>
<svg baseProfile="full" height="230.0mm" version="1.1" viewBox="0 0 230.0 230.0" width="230.0mm" xmlns="http://www.w3.org/2000/svg" xmlns:ev="http://www.w3.org/2001/xml-events" xmlns:xlink="http://www.w3.org/1999/xlink"><defs /><rect fill="rgb(0,0,0)" height="100%" width="100%" x="0" y="0" /><g style="text-anchor:middle;fill:rgb(255,255,255);font-family:FreeSans;font-size:12"><text x="32.5" y="38.5">S</text><text x="49.0" y="38.5">A</text><text x="65.5" y="38.5">O</text><text x="82.0" y="38.5">E</text><text x="98.5" y="38.5">D</text><text x="115.0" y="38.5">U</text><text x="131.5" y="38.5">A</text><text x="148.0" y="38.5">S</text><text x="164.5" y="38.5">U</text><text x="181.0" y="38.5">M</text><text x="197.5" y="38.5">A</text><text x="32.5" y="55.0">Q</text><text x="49.0" y="55.0">U</text><text x="65.5" y="55.0">A</text><text x="82.0" y="55.0">T</text><text x="98.5" y="55.0">R</text><text x="115.0" y="55.0">O</text><text x="131.5" y="55.0">I</text><text x="148.0" y="55.0">T</text><text x="164.5" y="55.0">R</text><text x="181.0" y="55.0">E</text><text x="197.5" y="55.0">S</text><text x="32.5" y="71.5">A</text><text x="49.0" y="71.5">S</text><text x="65.5" y="71.5">E</text><text x="82.0" y="71.5">I</text><text x="98.5" y="71.5">S</text><text x="115.0" y="71.5">V</text><text x="131.5" y="71.5">C</text><text x="148.0" y="71.5">I</text><text x="164.5" y="71.5">N</text><text x="181.0" y="71.5">C</text><text x="197.5" y="71.5">O</text><text x="32.5" y="88.0">O</text><text x="49.0" y="88.0">I</text><text x="65.5" y="88.0">T</text><text x="82.0" y="88.0">O</text><text x="98.5" y="88.0">M</text><text x="115.0" y="88.0">E</text><text x="131.5" y="88.0">I</text><text x="148.0" y="88.0">O</text><text x="164.5" y="88.0">D</text><text x="181.0" y="88.0">E</text><text x="197.5" y="88.0">Z</text><text x="32.5" y="104.5">M</text><text x="49.0" y="104.5">E</text><text x="65.5" y="104.5">I</text><text x="82.0" y="104.5">A</text><text x="98.5" y="104.5">S</text><text x="115.0" y="104.5">E</text><text x="131.5" y="104.5">T</text><text x="148.0" y="104.5">E</text><text x="164.5" y="104.5">D</text><text x="181.0" y="104.5">I</text><text x="197.5" y="104.5">A</text><text x="32.5" y="121.0">N</text><text x="49.0" y="121.0">O</text><text x="65.5" y="121.0">V</text><text x="82.0" y="121.0">E</text><text x="98.5" y="121.0">N</text><text x="115.0" y="121.0">O</text><text x="131.5" y="121.0">I</text><text x="148.0" y="121.0">T</text><text x="164.5" y="121.0">E</text><text x="181.0" y="121.0">X</text><text x="197.5" y="121.0">D</text><text x="32.5" y="137.5">O</text><text x="49.0" y="137.5">N</text><text x="65.5" y="137.5">Z</text><text x="82.0" y="137.5">E</text><text x="98.5" y="137.5">@</text><text x="115.0" y="137.5">E</text><text x="131.5" y="137.5">H</text><text x="148.0" y="137.5">O</text><text x="164.5" y="137.5">R</text><text x="181.0" y="137.5">A</text><text x="197.5" y="137.5">S</text><text x="32.5" y="154.0">P</text><text x="49.0" y="154.0">M</text><text x="65.5" y="154.0">E</text><text x="82.0" y="154.0">N</text><text x="98.5" y="154.0">O</text><text x="115.0" y="154.0">S</text><text x="131.5" y="154.0">Q</text><text x="148.0" y="154.0">M</text><text x="164.5" y="154.0">E</text><text x="181.0" y="154.0">I</text><text x="197.5" y="154.0">A</text><text x="32.5" y="170.5">V</text><text x="49.0" y="170.5">I</text><text x="65.5" y="170.5">N</text><text x="82.0" y="170.5">T</text><text x="98.5" y="170.5">E</text><text x="115.0" y="170.5">S</text><text x="131.5" y="170.5">O</text><text x="148.0" y="170.5">L</text><text x="164.5" y="170.5">U</text><text x="181.0" y="170.5">A</text><text x="197.5" y="170.5">X</text><text x="32.5" y="187.0">E</text><text x="49.0" y="187.0">U</text><text x="65.5" y="187.0">M</text><text x="82.0" y="187.0">C</text><text x="98.5" y="187.0">I</text><text x="115.0" y="187.0">N</text><text x="131.5" y="187.0">C</text><text x="148.0" y="187.0">O</text><text x="164.5" y="187.0">D</text><text x="181.0" y="187.0">E</text><text x="197.5" y="187.0">Z</text><text x="32.5" y="203.5">K</text><text x="49.0" y="203.5">E</text><text x="65.5" y="203.5">U</text><text x="82.0" y="203.5">D</text><text x="98.5" y="203.5">E</text><text x="115.0" y="203.5">Q</text><text x="131.5" y="203.5">U</text><text x="148.0" y="203.5">A</text><text x="164.5" y="203.5">R</text><text x="181.0" y="203.5">T</text><text x="197.5" y="203.5">O</text><circle cx="15.0" cy="15.0" fill="rgb(255,255,255)" r="0.0" /><circle cx="215.0" cy="15.0" fill="rgb(255,255,255)" r="0.0" /><circle cx="15.0" cy="215.0" fill="rgb(255,255,255)" r="0.0" /><circle cx="215.0" cy="215.0" fill="rgb(255,255,255)" r="0.0" /></g></svg>