<?xml version="1.0" encoding="utf-8" ?>
<svg baseProfile="full" height="230.0mm" version="1.1" viewBox="0 0 230.0 230.0" width="230.0mm" xmlns="http://www.w3.org/2000/svg" xmlns:ev="http://www.w3.org/2001/xml-events" xmlns:xlink="http://www.w3.org/1999/xlink"><defs /><rect fill="rgb(255,255,255)" height="100%" width="100%" x="0" y="0" /><text style="text-anchor:middle;fill:rgb(0,255,0);font-family:FreeSans;font-size: 10" x="115.0" y="15.0">portuguese --- back-view --- webdisaster_wiring</text><g style="text-anchor:middle;fill:rgb(0,0,0);font-family:FreeSans;font-size:6"><line stroke="rgb(255,0,0)" x1="197.5" x2="181.0" y1="32.5" y2="32.5" /><line stroke="rgb(255,0,0)" x1="181.0" x2="164.5" y1="32.5" y2="32.5" /><line stroke="rgb(255,0,0)" x1="164.5" x2="148.0" y1="32.5" y2="32.5" /><line stroke="rgb(255,0,0)" x1="148.0" x2="131.5" y1="32.5" y2="32.5" /><line stroke="rgb(255,0,0)" x1="131.5" x2="115.0" y1="32.5" y2="32.5" /><line stroke="rgb(255,0,0)" x1="115.0" x2="98.5" y1="32.5" y2="32.5" /><line stroke="rgb(255,0,0)" x1="98.5" x2="82.0" y1="32.5" y2="32.5" /><line stroke="rgb(255,0,0)" x1="82.0" x2="65.5" y1="32.5" y2="32.5" /><line stroke="rgb(255,0,0)" x1="65.5" x2="49.0" y1="32.5" y2="32.5" /><line stroke="rgb(255,0,0)" x1="49.0" x2="32.5" y1="32.5" y2="32.5" /><line stroke="rgb(255,0,0)" x1="32.5" x2="32.5" y1="32.5" y2="49.0" /><line stroke="rgb(255,0,0)" x1="32.5" x2="49.0" y1="49.0" y2="49.0" /><line stroke="rgb(255,0,0)" x1="49.0" x2="65.5" y1="49.0" y2="49.0" /><line stroke="rgb(255,0,0)" x1="65.5" x2="82.0" y1="49.0" y2="49.0" /><line stroke="rgb(255,0,0)" x1="82.0" x2="98.5" y1="49.0" y2="49.0" /><line stroke="rgb(255,0,0)" x1="98.5" x2="115.0" y1="49.0" y2="49.0" /><line stroke="rgb(255,0,0)" x1="115.0" x2="131.5" y1="49.0" y2="49.0" /><line stroke="rgb(255,0,0)" x1="131.5" x2="148.0" y1="49.0" y2="49.0" /><line stroke="rgb(255,0,0)" x1="148.0" x2="164.5" y1="49.0" y2="49.0" /><line stroke="rgb(255,0,0)" x1="164.5" x2="181.0" y1="49.0" y2="49.0" /><line stroke="rgb(255,0,0)" x1="181.0" x2="197.5" y1="49.0" y2="49.0" /><line stroke="rgb(255,0,0)" x1="197.5" x2="197.5" y1="49.0" y2="65.5" /><line stroke="rgb(255,0,0)" x1="197.5" x2="181.0" y1="65.5" y2="65.5" /><line stroke="rgb(255,0,0)" x1="181.0" x2="164.5" y1="65.5" y2="65.5" /><line stroke="rgb(255,0,0)" x1="164.5" x2="148.0" y1="65.5" y2="65.5" /><line stroke="rgb(255,0,0)" x1="148.0" x2="131.5" y1="65.5" y2="65.5" /><line stroke="rgb(255,0,0)" x1="131.5" x2="115.0" y1="65.5" y2="65.5" /><line stroke="rgb(255,0,0)" x1="115.0" x2="98.5" y1="65.5" y2="65.5" /><line stroke="rgb(255,0,0)" x1="98.5" x2="82.0" y1="65.5" y2="65.5" /><line stroke="rgb(255,0,0)" x1="82.0" x2="65.5" y1="65.5" y2="65.5" /><line stroke="rgb(255,0,0)" x1="65.5" x2="49.0" y1="65.5" y2="65.5" /><line stroke="rgb(255,0,0)" x1="49.0" x2="32.5" y1="65.5" y2="65.5" /><line stroke="rgb(255,0,0)" x1="32.5" x2="32.5" y1="65.5" y2="82.0" /><line stroke="rgb(255,0,0)" x1="32.5" x2="49.0" y1="82.0" y2="82.0" /><line stroke="rgb(255,0,0)" x1="49.0" x2="65.5" y1="82.0" y2="82.0" /><line stroke="rgb(255,0,0)" x1="65.5" x2="82.0" y1="82.0" y2="82.0" /><line stroke="rgb(255,0,0)" x1="82.0" x2="98.5" y1="82.0" y2="82.0" /><line stroke="rgb(255,0,0)" x1="98.5" x2="115.0" y1="82.0" y2="82.0" /><line stroke="rgb(255,0,0)" x1="115.0" x2="131.5" y1="82.0" y2="82.0" /><line stroke="rgb(255,0,0)" x1="131.5" x2="148.0" y1="82.0" y2="82.0" /><line stroke="rgb(255,0,0)" x1="148.0" x2="164.5" y1="82.0" y2="82.0" /><line stroke="rgb(255,0,0)" x1="164.5" x2="181.0" y1="82.0" y2="82.0" /><line stroke="rgb(255,0,0)" x1="181.0" x2="197.5" y1="82.0" y2="82.0" /><line stroke="rgb(255,0,0)" x1="197.5" x2="197.5" y1="82.0" y2="98.5" /><line stroke="rgb(255,0,0)" x1="197.5" x2="181.0" y1="98.5" y2="98.5" /><line stroke="rgb(255,0,0)" x1="181.0" x2="164.5" y1="98.5" y2="98.5" /><line stroke="rgb(255,0,0)" x1="164.5" x2="148.0" y1="98.5" y2="98.5" /><line stroke="rgb(255,0,0)" x1="148.0" x2="131.5" y1="98.5" y2="98.5" /><line stroke="rgb(255,0,0)" x1="131.5" x2="115.0" y1="98.5" y2="98.5" /><line stroke="rgb(255,0,0)" x1="115.0" x2="98.5" y1="98.5" y2="98.5" /><line stroke="rgb(255,0,0)" x1="98.5" x2="82.0" y1="98.5" y2="98.5" /><line stroke="rgb(255,0,0)" x1="82.0" x2="65.5" y1="98.5" y2="98.5" /><line stroke="rgb(255,0,0)" x1="65.5" x2="49.0" y1="98.5" y2="98.5" /><line stroke="rgb(255,0,0)" x1="49.0" x2="32.5" y1="98.5" y2="98.5" /><line stroke="rgb(255,0,0)" x1="32.5" x2="32.5" y1="98.5" y2="115.0" /><line stroke="rgb(255,0,0)" x1="32.5" x2="49.0" y1="115.0" y2="115.0" /><line stroke="rgb(255,0,0)" x1="49.0" x2="65.5" y1="115.0" y2="115.0" /><line stroke="rgb(255,0,0)" x1="65.5" x2="82.0" y1="115.0" y2="115.0" /><line stroke="rgb(255,0,0)" x1="82.0" x2="98.5" y1="115.0" y2="115.0" /><line stroke="rgb(255,0,0)" x1="98.5" x2="115.0" y1="115.0" y2="115.0" /><line stroke="rgb(255,0,0)" x1="115.0" x2="131.5" y1="115.0" y2="115.0" /><line stroke="rgb(255,0,0)" x1="131.5" x2="148.0" y1="115.0" y2="115.0" /><line stroke="rgb(255,0,0)" x1="148.0" x2="164.5" y1="115.0" y2="115.0" /><line stroke="rgb(255,0,0)" x1="164.5" x2="181.0" y1="115.0" y2="115.0" /><line stroke="rgb(255,0,0)" x1="181.0" x2="197.5" y1="115.0" y2="115.0" /><line stroke="rgb(255,0,0)" x1="197.5" x2="197.5" y1="115.0" y2="131.5" /><line stroke="rgb(255,0,0)" x1="197.5" x2="181.0" y1="131.5" y2="131.5" /><line stroke="rgb(255,0,0)" x1="181.0" x2="164.5" y1="131.5" y2="131.5" /><line stroke="rgb(255,0,0)" x1="164.5" x2="148.0" y1="131.5" y2="131.5" /><line stroke="rgb(255,0,0)" x1="148.0" x2="131.5" y1="131.5" y2="131.5" /><line stroke="rgb(255,0,0)" x1="131.5" x2="115.0" y1="131.5" y2="131.5" /><line stroke="rgb(255,0,0)" x1="115.0" x2="98.5" y1="131.5" y2="131.5" /><line stroke="rgb(255,0,0)" x1="98.5" x2="82.0" y1="131.5" y2="131.5" /><line stroke="rgb(255,0,0)" x1="82.0" x2="65.5" y1="131.5" y2="131.5" /><line stroke="rgb(255,0,0)" x1="65.5" x2="49.0" y1="131.5" y2="131.5" /><line stroke="rgb(255,0,0)" x1="49.0" x2="32.5" y1="131.5" y2="131.5" /><line stroke="rgb(255,0,0)" x1="32.5" x2="32.5" y1="131.5" y2="148.0" /><line stroke="rgb(255,0,0)" x1="32.5" x2="49.0" y1="148.0" y2="148.0" /><line stroke="rgb(255,0,0)" x1="49.0" x2="65.5" y1="148.0" y2="148.0" /><line stroke="rgb(255,0,0)" x1="65.5" x2="82.0" y1="148.0" y2="148.0" /><line stroke="rgb(255,0,0)" x1="82.0" x2="98.5" y1="148.0" y2="148.0" /><line stroke="rgb(255,0,0)" x1="98.5" x2="115.0" y1="148.0" y2="148.0" /><line stroke="rgb(255,0,0)" x1="115.0" x2="131.5" y1="148.0" y2="148.0" /><line stroke="rgb(255,0,0)" x1="131.5" x2="148.0" y1="148.0" y2="148.0" /><line stroke="rgb(255,0,0)" x1="148.0" x2="164.5" y1="148.0" y2="148.0" /><line stroke="rgb(255,0,0)" x1="164.5" x2="181.0" y1="148.0" y2="148.0" /><line stroke="rgb(255,0,0)" x1="181.0" x2="197.5" y1="148.0" y2="148.0" /><line stroke="rgb(255,0,0)" x1="197.5" x2="197.5" y1="148.0" y2="164.5" /><line stroke="rgb(255,0,0)" x1="197.5" x2="181.0" y1="164.5" y2="164.5" /><line stroke="rgb(255,0,0)" x1="181.0" x2="164.5" y1="164.5" y2="164.5" /><line stroke="rgb(255,0,0)" x1="164.5" x2="148.0" y1="164.5" y2="164.5" /><line stroke="rgb(255,0,0)" x1="148.0" x2="131.5" y1="164.5" y2="164.5" /><line stroke="rgb(255,0,0)" x1="131.5" x2="115.0" y1="164.5" y2="164.5" /><line stroke="rgb(255,0,0)" x1="115.0" x2="98.5" y1="164.5" y2="164.5" /><line stroke="rgb(255,0,0)" x1="98.5" x2="82.0" y1="164.5" y2="164.5" /><line stroke="rgb(255,0,0)" x1="82.0" x2="65.5" y1="164.5" y2="164.5" /><line stroke="rgb(255,0,0)" x1="65.5" x2="49.0" y1="164.5" y2="164.5" /><line stroke="rgb(255,0,0)" x1="49.0" x2="32.5" y1="164.5" y2="164.5" /><line stroke="rgb(255,0,0)" x1="32.5" x2="32.5" y1="164.5" y2="181.0" /><line stroke="rgb(255,0,0)" x1="32.5" x2="49.0" y1="181.0" y2="181.0" /><line stroke="rgb(255,0,0)" x1="49.0" x2="65.5" y1="181.0" y2="181.0" /><line stroke="rgb(255,0,0)" x1="65.5" x2="82.0" y1="181.0" y2="181.0" /><line stroke="rgb(255,0,0)" x1="82.0" x2="98.5" y1="181.0" y2="181.0" /><line stroke="rgb(255,0,0)" x1="98.5" x2="115.0" y1="181.0" y2="181.0" /><line stroke="rgb(255,0,0)" x1="115.0" x2="131.5" y1="181.0" y2="181.0" /><line stroke="rgb(255,0,0)" x1="131.5" x2="148.0" y1="181.0" y2="181.0" /><line stroke="rgb(255,0,0)" x1="148.0" x2="164.5" y1="181.0" y2="181.0" /><line stroke="rgb(255,0,0)" x1="164.5" x2="181.0" y1="181.0" y2="181.0" /><line stroke="rgb(255,0,0)" x1="181.0" x2="197.5" y1="181.0" y2="181.0" /><line stroke="rgb(255,0,0)" x1="197.5" x2="197.5" y1="181.0" y2="197.5" /><line stroke="rgb(255,0,0)" x1="197.5" x2="181.0" y1="197.5" y2="197.5" /><line stroke="rgb(255,0,0)" x1="181.0" x2="164.5" y1="197.5" y2="197.5" /><line stroke="rgb(255,0,0)" x1="164.5" x2="148.0" y1="197.5" y2="197.5" /><line stroke="rgb(255,0,0)" x1="148.0" x2="131.5" y1="197.5" y2="197.5" /><line stroke="rgb(255,0,0)" x1="131.5" x2="115.0" y1="197.5" y2="197.5" /><line stroke="rgb(255,0,0)" x1="115.0" x2="98.5" y1="197.5" y2="197.5" /><line stroke="rgb(255,0,0)" x1="98.5" x2="82.0" y1="197.5" y2="197.5" /><line stroke="rgb(255,0,0)" x1="82.0" x2="65.5" y1="197.5" y2="197.5" /><line stroke="rgb(255,0,0)" x1="65.5" x2="49.0" y1="197.5" y2="197.5" /><line stroke="rgb(255,0,0)" x1="49.0" x2="32.5" y1="197.5" y2="197.5" /><text x="194.2" y="29.2">S</text><text x="200.8" y="29.2">0</text><text x="194.2" y="35.8">(0,0)</text><line stroke="rgb(0,0,0)" x1="197.5" x2="197.5" y1="29.2" y2="35.8" /><line stroke="rgb(0,0,0)" x1="194.2" x2="200.8" y1="32.5" y2="32.5" /><text x="177.7" y="29.2">A</text><text x="184.3" y="29.2">1</text><text x="177.7" y="35.8">(1,0)</text><line stroke="rgb(0,0,0)" x1="181.0" x2="181.0" y1="29.2" y2="35.8" /><line stroke="rgb(0,0,0)" x1="177.7" x2="184.3" y1="32.5" y2="32.5" /><text x="161.2" y="29.2">O</text><text x="167.8" y="29.2">2</text><text x="161.2" y="35.8">(2,0)</text><line stroke="rgb(0,0,0)" x1="164.5" x2="164.5" y1="29.2" y2="35.8" /><line stroke="rgb(0,0,0)" x1="161.2" x2="167.8" y1="32.5" y2="32.5" /><text x="144.7" y="29.2">E</text><text x="151.3" y="29.2">3</text><text x="144.7" y="35.8">(3,0)</text><line stroke="rgb(0,0,0)" x1="148.0" x2="148.0" y1="29.2" y2="35.8" /><line stroke="rgb(0,0,0)" x1="144.7" x2="151.3" y1="32.5" y2="32.5" /><text x="128.2" y="29.2">D</text><text x="134.8" y="29.2">4</text><text x="128.2" y="35.8">(4,0)</text><line stroke="rgb(0,0,0)" x1="131.5" x2="131.5" y1="29.2" y2="35.8" /><line stroke="rgb(0,0,0)" x1="128.2" x2="134.8" y1="32.5" y2="32.5" /><text x="111.7" y="29.2">U</text><text x="118.3" y="29.2">5</text><text x="111.7" y="35.8">(5,0)</text><line stroke="rgb(0,0,0)" x1="115.0" x2="115.0" y1="29.2" y2="35.8" /><line stroke="rgb(0,0,0)" x1="111.7" x2="118.3" y1="32.5" y2="32.5" /><text x="95.2" y="29.2">A</text><text x="101.8" y="29.2">6</text><text x="95.2" y="35.8">(6,0)</text><line stroke="rgb(0,0,0)" x1="98.5" x2="98.5" y1="29.2" y2="35.8" /><line stroke="rgb(0,0,0)" x1="95.2" x2="101.8" y1="32.5" y2="32.5" /><text x="78.7" y="29.2">S</text><text x="85.3" y="29.2">7</text><text x="78.7" y="35.8">(7,0)</text><line stroke="rgb(0,0,0)" x1="82.0" x2="82.0" y1="29.2" y2="35.8" /><line stroke="rgb(0,0,0)" x1="78.7" x2="85.3" y1="32.5" y2="32.5" /><text x="62.2" y="29.2">U</text><text x="68.8" y="29.2">8</text><text x="62.2" y="35.8">(8,0)</text><line stroke="rgb(0,0,0)" x1="65.5" x2="65.5" y1="29.2" y2="35.8" /><line stroke="rgb(0,0,0)" x1="62.2" x2="68.8" y1="32.5" y2="32.5" /><text x="45.7" y="29.2">M</text><text x="52.3" y="29.2">9</text><text x="45.7" y="35.8">(9,0)</text><line stroke="rgb(0,0,0)" x1="49.0" x2="49.0" y1="29.2" y2="35.8" /><line stroke="rgb(0,0,0)" x1="45.7" x2="52.3" y1="32.5" y2="32.5" /><text x="29.2" y="29.2">A</text><text x="35.8" y="29.2">10</text><text x="29.2" y="35.8">(10,0)</text><line stroke="rgb(0,0,0)" x1="32.5" x2="32.5" y1="29.2" y2="35.8" /><line stroke="rgb(0,0,0)" x1="29.2" x2="35.8" y1="32.5" y2="32.5" /><text x="194.2" y="45.7">Q</text><text x="200.8" y="45.7">11</text><text x="194.2" y="52.3">(0,1)</text><line stroke="rgb(0,0,0)" x1="197.5" x2="197.5" y1="45.7" y2="52.3" /><line stroke="rgb(0,0,0)" x1="194.2" x2="200.8" y1="49.0" y2="49.0" /><text x="177.7" y="45.7">U</text><text x="184.3" y="45.7">12</text><text x="177.7" y="52.3">(1,1)</text><line stroke="rgb(0,0,0)" x1="181.0" x2="181.0" y1="45.7" y2="52.3" /><line stroke="rgb(0,0,0)" x1="177.7" x2="184.3" y1="49.0" y2="49.0" /><text x="161.2" y="45.7">A</text><text x="167.8" y="45.7">13</text><text x="161.2" y="52.3">(2,1)</text><line stroke="rgb(0,0,0)" x1="164.5" x2="164.5" y1="45.7" y2="52.3" /><line stroke="rgb(0,0,0)" x1="161.2" x2="167.8" y1="49.0" y2="49.0" /><text x="144.7" y="45.7">T</text><text x="151.3" y="45.7">14</text><text x="144.7" y="52.3">(3,1)</text><line stroke="rgb(0,0,0)" x1="148.0" x2="148.0" y1="45.7" y2="52.3" /><line stroke="rgb(0,0,0)" x1="144.7" x2="151.3" y1="49.0" y2="49.0" /><text x="128.2" y="45.7">R</text><text x="134.8" y="45.7">15</text><text x="128.2" y="52.3">(4,1)</text><line stroke="rgb(0,0,0)" x1="131.5" x2="131.5" y1="45.7" y2="52.3" /><line stroke="rgb(0,0,0)" x1="128.2" x2="134.8" y1="49.0" y2="49.0" /><text x="111.7" y="45.7">O</text><text x="118.3" y="45.7">16</text><text x="111.7" y="52.3">(5,1)</text><line stroke="rgb(0,0,0)" x1="115.0" x2="115.0" y1="45.7" y2="52.3" /><line stroke="rgb(0,0,0)" x1="111.7" x2="118.3" y1="49.0" y2="49.0" /><text x="95.2" y="45.7">I</text><text x="101.8" y="45.7">17</text><text x="95.2" y="52.3">(6,1)</text><line stroke="rgb(0,0,0)" x1="98.5" x2="98.5" y1="45.7" y2="52.3" /><line stroke="rgb(0,0,0)" x1="95.2" x2="101.8" y1="49.0" y2="49.0" /><text x="78.7" y="45.7">T</text><text x="85.3" y="45.7">18</text><text x="78.7" y="52.3">(7,1)</text><line stroke="rgb(0,0,0)" x1="82.0" x2="82.0" y1="45.7" y2="52.3" /><line stroke="rgb(0,0,0)" x1="78.7" x2="85.3" y1="49.0" y2="49.0" /><text x="62.2" y="45.7">R</text><text x="68.8" y="45.7">19</text><text x="62.2" y="52.3">(8,1)</text><line stroke="rgb(0,0,0)" x1="65.5" x2="65.5" y1="45.7" y2="52.3" /><line stroke="rgb(0,0,0)" x1="62.2" x2="68.8" y1="49.0" y2="49.0" /><text x="45.7" y="45.7">E</text><text x="52.3" y="45.7">20</text><text x="45.7" y="52.3">(9,1)</text><line stroke="rgb(0,0,0)" x1="49.0" x2="49.0" y1="45.7" y2="52.3" /><line stroke="rgb(0,0,0)" x1="45.7" x2="52.3" y1="49.0" y2="49.0" /><text x="29.2" y="45.7">S</text><text x="35.8" y="45.7">21</text><text x="29.2" y="52.3">(10,1)</text><line stroke="rgb(0,0,0)" x1="32.5" x2="32.5" y1="45.7" y2="52.3" /><line stroke="rgb(0,0,0)" x1="29.2" x2="35.8" y1="49.0" y2="49.0" /><text x="194.2" y="62.2">A</text><text x="200.8" y="62.2">22</text><text x="194.2" y="68.8">(0,2)</text><line stroke="rgb(0,0,0)" x1="197.5" x2="197.5" y1="62.2" y2="68.8" /><line stroke="rgb(0,0,0)" x1="194.2" x2="200.8" y1="65.5" y2="65.5" /><text x="177.7" y="62.2">S</text><text x="184.3" y="62.2">23</text><text x="177.7" y="68.8">(1,2)</text><line stroke="rgb(0,0,0)" x1="181.0" x2="181.0" y1="62.2" y2="68.8" /><line stroke="rgb(0,0,0)" x1="177.7" x2="184.3" y1="65.5" y2="65.5" /><text x="161.2" y="62.2">E</text><text x="167.8" y="62.2">24</text><text x="161.2" y="68.8">(2,2)</text><line stroke="rgb(0,0,0)" x1="164.5" x2="164.5" y1="62.2" y2="68.8" /><line stroke="rgb(0,0,0)" x1="161.2" x2="167.8" y1="65.5" y2="65.5" /><text x="144.7" y="62.2">I</text><text x="151.3" y="62.2">25</text><text x="144.7" y="68.8">(3,2)</text><line stroke="rgb(0,0,0)" x1="148.0" x2="148.0" y1="62.2" y2="68.8" /><line stroke="rgb(0,0,0)" x1="144.7" x2="151.3" y1="65.5" y2="65.5" /><text x="128.2" y="62.2">S</text><text x="134.8" y="62.2">26</text><text x="128.2" y="68.8">(4,2)</text><line stroke="rgb(0,0,0)" x1="131.5" x2="131.5" y1="62.2" y2="68.8" /><line stroke="rgb(0,0,0)" x1="128.2" x2="134.8" y1="65.5" y2="65.5" /><text x="111.7" y="62.2">V</text><text x="118.3" y="62.2">27</text><text x="111.7" y="68.8">(5,2)</text><line stroke="rgb(0,0,0)" x1="115.0" x2="115.0" y1="62.2" y2="68.8" /><line stroke="rgb(0,0,0)" x1="111.7" x2="118.3" y1="65.5" y2="65.5" /><text x="95.2" y="62.2">C</text><text x="101.8" y="62.2">28</text><text x="95.2" y="68.8">(6,2)</text><line stroke="rgb(0,0,0)" x1="98.5" x2="98.5" y1="62.2" y2="68.8" /><line stroke="rgb(0,0,0)" x1="95.2" x2="101.8" y1="65.5" y2="65.5" /><text x="78.7" y="62.2">I</text><text x="85.3" y="62.2">29</text><text x="78.7" y="68.8">(7,2)</text><line stroke="rgb(0,0,0)" x1="82.0" x2="82.0" y1="62.2" y2="68.8" /><line stroke="rgb(0,0,0)" x1="78.7" x2="85.3" y1="65.5" y2="65.5" /><text x="62.2" y="62.2">N</text><text x="68.8" y="62.2">30</text><text x="62.2" y="68.8">(8,2)</text><line stroke="rgb(0,0,0)" x1="65.5" x2="65.5" y1="62.2" y2="68.8" /><line stroke="rgb(0,0,0)" x1="62.2" x2="68.8" y1="65.5" y2="65.5" /><text x="45.7" y="62.2">C</text><text x="52.3" y="62.2">31</text><text x="45.7" y="68.8">(9,2)</text><line stroke="rgb(0,0,0)" x1="49.0" x2="49.0" y1="62.2" y2="68.8" /><line stroke="rgb(0,0,0)" x1="45.7" x2="52.3" y1="65.5" y2="65.5" /><text x="29.2" y="62.2">O</text><text x="35.8" y="62.2">32</text><text x="29.2" y="68.8">(10,2)</text><line stroke="rgb(0,0,0)" x1="32.5" x2="32.5" y1="62.2" y2="68.8" /><line stroke="rgb(0,0,0)" x1="29.2" x2="35.8" y1="65.5" y2="65.5" /><text x="194.2" y="78.7">O</text><text x="200.8" y="78.7">33</text><text x="194.2" y="85.3">(0,3)</text><line stroke="rgb(0,0,0)" x1="197.5" x2="197.5" y1="78.7" y2="85.3" /><line stroke="rgb(0,0,0)" x1="194.2" x2="200.8" y1="82.0" y2="82.0" /><text x="177.7" y="78.7">I</text><text x="184.3" y="78.7">34</text><text x="177.7" y="85.3">(1,3)</text><line stroke="rgb(0,0,0)" x1="181.0" x2="181.0" y1="78.7" y2="85.3" /><line stroke="rgb(0,0,0)" x1="177.7" x2="184.3" y1="82.0" y2="82.0" /><text x="161.2" y="78.7">T</text><text x="167.8" y="78.7">35</text><text x="161.2" y="85.3">(2,3)</text><line stroke="rgb(0,0,0)" x1="164.5" x2="164.5" y1="78.7" y2="85.3" /><line stroke="rgb(0,0,0)" x1="161.2" x2="167.8" y1="82.0" y2="82.0" /><text x="144.7" y="78.7">O</text><text x="151.3" y="78.7">36</text><text x="144.7" y="85.3">(3,3)</text><line stroke="rgb(0,0,0)" x1="148.0" x2="148.0" y1="78.7" y2="85.3" /><line stroke="rgb(0,0,0)" x1="144.7" x2="151.3" y1="82.0" y2="82.0" /><text x="128.2" y="78.7">M</text><text x="134.8" y="78.7">37</text><text x="128.2" y="85.3">(4,3)</text><line stroke="rgb(0,0,0)" x1="131.5" x2="131.5" y1="78.7" y2="85.3" /><line stroke="rgb(0,0,0)" x1="128.2" x2="134.8" y1="82.0" y2="82.0" /><text x="111.7" y="78.7">E</text><text x="118.3" y="78.7">38</text><text x="111.7" y="85.3">(5,3)</text><line stroke="rgb(0,0,0)" x1="115.0" x2="115.0" y1="78.7" y2="85.3" /><line stroke="rgb(0,0,0)" x1="111.7" x2="118.3" y1="82.0" y2="82.0" /><text x="95.2" y="78.7">I</text><text x="101.8" y="78.7">39</text><text x="95.2" y="85.3">(6,3)</text><line stroke="rgb(0,0,0)" x1="98.5" x2="98.5" y1="78.7" y2="85.3" /><line stroke="rgb(0,0,0)" x1="95.2" x2="101.8" y1="82.0" y2="82.0" /><text x="78.7" y="78.7">O</text><text x="85.3" y="78.7">40</text><text x="78.7" y="85.3">(7,3)</text><line stroke="rgb(0,0,0)" x1="82.0" x2="82.0" y1="78.7" y2="85.3" /><line stroke="rgb(0,0,0)" x1="78.7" x2="85.3" y1="82.0" y2="82.0" /><text x="62.2" y="78.7">D</text><text x="68.8" y="78.7">41</text><text x="62.2" y="85.3">(8,3)</text><line stroke="rgb(0,0,0)" x1="65.5" x2="65.5" y1="78.7" y2="85.3" /><line stroke="rgb(0,0,0)" x1="62.2" x2="68.8" y1="82.0" y2="82.0" /><text x="45.7" y="78.7">E</text><text x="52.3" y="78.7">42</text><text x="45.7" y="85.3">(9,3)</text><line stroke="rgb(0,0,0)" x1="49.0" x2="49.0" y1="78.7" y2="85.3" /><line stroke="rgb(0,0,0)" x1="45.7" x2="52.3" y1="82.0" y2="82.0" /><text x="29.2" y="78.7">Z</text><text x="35.8" y="78.7">43</text><text x="29.2" y="85.3">(10,3)</text><line stroke="rgb(0,0,0)" x1="32.5" x2="32.5" y1="78.7" y2="85.3" /><line stroke="rgb(0,0,0)" x1="29.2" x2="35.8" y1="82.0" y2="82.0" /><text x="194.2" y="95.2">M</text><text x="200.8" y="95.2">44</text><text x="194.2" y="101.8">(0,4)</text><line stroke="rgb(0,0,0)" x1="197.5" x2="197.5" y1="95.2" y2="101.8" /><line stroke="rgb(0,0,0)" x1="194.2" x2="200.8" y1="98.5" y2="98.5" /><text x="177.7" y="95.2">E</text><text x="184.3" y="95.2">45</text><text x="177.7" y="101.8">(1,4)</text><line stroke="rgb(0,0,0)" x1="181.0" x2="181.0" y1="95.2" y2="101.8" /><line stroke="rgb(0,0,0)" x1="177.7" x2="184.3" y1="98.5" y2="98.5" /><text x="161.2" y="95.2">I</text><text x="167.8" y="95.2">46</text><text x="161.2" y="101.8">(2,4)</text><line stroke="rgb(0,0,0)" x1="164.5" x2="164.5" y1="95.2" y2="101.8" /><line stroke="rgb(0,0,0)" x1="161.2" x2="167.8" y1="98.5" y2="98.5" /><text x="144.7" y="95.2">A</text><text x="151.3" y="95.2">47</text><text x="144.7" y="101.8">(3,4)</text><line stroke="rgb(0,0,0)" x1="148.0" x2="148.0" y1="95.2" y2="101.8" /><line stroke="rgb(0,0,0)" x1="144.7" x2="151.3" y1="98.5" y2="98.5" /><text x="128.2" y="95.2">S</text><text x="134.8" y="95.2">48</text><text x="128.2" y="101.8">(4,4)</text><line stroke="rgb(0,0,0)" x1="131.5" x2="131.5" y1="95.2" y2="101.8" /><line stroke="rgb(0,0,0)" x1="128.2" x2="134.8" y1="98.5" y2="98.5" /><text x="111.7" y="95.2">E</text><text x="118.3" y="95.2">49</text><text x="111.7" y="101.8">(5,4)</text><line stroke="rgb(0,0,0)" x1="115.0" x2="115.0" y1="95.2" y2="101.8" /><line stroke="rgb(0,0,0)" x1="111.7" x2="118.3" y1="98.5" y2="98.5" /><text x="95.2" y="95.2">T</text><text x="101.8" y="95.2">50</text><text x="95.2" y="101.8">(6,4)</text><line stroke="rgb(0,0,0)" x1="98.5" x2="98.5" y1="95.2" y2="101.8" /><line stroke="rgb(0,0,0)" x1="95.2" x2="101.8" y1="98.5" y2="98.5" /><text x="78.7" y="95.2">E</text><text x="85.3" y="95.2">51</text><text x="78.7" y="101.8">(7,4)</text><line stroke="rgb(0,0,0)" x1="82.0" x2="82.0" y1="95.2" y2="101.8" /><line stroke="rgb(0,0,0)" x1="78.7" x2="85.3" y1="98.5" y2="98.5" /><text x="62.2" y="95.2">D</text><text x="68.8" y="95.2">52</text><text x="62.2" y="101.8">(8,4)</text><line stroke="rgb(0,0,0)" x1="65.5" x2="65.5" y1="95.2" y2="101.8" /><line stroke="rgb(0,0,0)" x1="62.2" x2="68.8" y1="98.5" y2="98.5" /><text x="45.7" y="95.2">I</text><text x="52.3" y="95.2">53</text><text x="45.7" y="101.8">(9,4)</text><line stroke="rgb(0,0,0)" x1="49.0" x2="49.0" y1="95.2" y2="101.8" /><line stroke="rgb(0,0,0)" x1="45.7" x2="52.3" y1="98.5" y2="98.5" /><text x="29.2" y="95.2">A</text><text x="35.8" y="95.2">54</text><text x="29.2" y="101.8">(10,4)</text><line stroke="rgb(0,0,0)" x1="32.5" x2="32.5" y1="95.2" y2="101.8" /><line stroke="rgb(0,0,0)" x1="29.2" x2="35.8" y1="98.5" y2="98.5" /><text x="194.2" y="111.7">N</text><text x="200.8" y="111.7">55</text><text x="194.2" y="118.3">(0,5)</text><line stroke="rgb(0,0,0)" x1="197.5" x2="197.5" y1="111.7" y2="118.3" /><line stroke="rgb(0,0,0)" x1="194.2" x2="200.8" y1="115.0" y2="115.0" /><text x="177.7" y="111.7">O</text><text x="184.3" y="111.7">56</text><text x="177.7" y="118.3">(1,5)</text><line stroke="rgb(0,0,0)" x1="181.0" x2="181.0" y1="111.7" y2="118.3" /><line stroke="rgb(0,0,0)" x1="177.7" x2="184.3" y1="115.0" y2="115.0" /><text x="161.2" y="111.7">V</text><text x="167.8" y="111.7">57</text><text x="161.2" y="118.3">(2,5)</text><line stroke="rgb(0,0,0)" x1="164.5" x2="164.5" y1="111.7" y2="118.3" /><line stroke="rgb(0,0,0)" x1="161.2" x2="167.8" y1="115.0" y2="115.0" /><text x="144.7" y="111.7">E</text><text x="151.3" y="111.7">58</text><text x="144.7" y="118.3">(3,5)</text><line stroke="rgb(0,0,0)" x1="148.0" x2="148.0" y1="111.7" y2="118.3" /><line stroke="rgb(0,0,0)" x1="144.7" x2="151.3" y1="115.0" y2="115.0" /><text x="128.2" y="111.7">N</text><text x="134.8" y="111.7">59</text><text x="128.2" y="118.3">(4,5)</text><line stroke="rgb(0,0,0)" x1="131.5" x2="131.5" y1="111.7" y2="118.3" /><line stroke="rgb(0,0,0)" x1="128.2" x2="134.8" y1="115.0" y2="115.0" /><text x="111.7" y="111.7">O</text><text x="118.3" y="111.7">60</text><text x="111.7" y="118.3">(5,5)</text><line stroke="rgb(0,0,0)" x1="115.0" x2="115.0" y1="111.7" y2="118.3" /><line stroke="rgb(0,0,0)" x1="111.7" x2="118.3" y1="115.0" y2="115.0" /><text x="95.2" y="111.7">I</text><text x="101.8" y="111.7">61</text><text x="95.2" y="118.3">(6,5)</text><line stroke="rgb(0,0,0)" x1="98.5" x2="98.5" y1="111.7" y2="118.3" /><line stroke="rgb(0,0,0)" x1="95.2" x2="101.8" y1="115.0" y2="115.0" /><text x="78.7" y="111.7">T</text><text x="85.3" y="111.7">62</text><text x="78.7" y="118.3">(7,5)</text><line stroke="rgb(0,0,0)" x1="82.0" x2="82.0" y1="111.7" y2="118.3" /><line stroke="rgb(0,0,0)" x1="78.7" x2="85.3" y1="115.0" y2="115.0" /><text x="62.2" y="111.7">E</text><text x="68.8" y="111.7">63</text><text x="62.2" y="118.3">(8,5)</text><line stroke="rgb(0,0,0)" x1="65.5" x2="65.5" y1="111.7" y2="118.3" /><line stroke="rgb(0,0,0)" x1="62.2" x2="68.8" y1="115.0" y2="115.0" /><text x="45.7" y="111.7">X</text><text x="52.3" y="111.7">64</text><text x="45.7" y="118.3">(9,5)</text><line stroke="rgb(0,0,0)" x1="49.0" x2="49.0" y1="111.7" y2="118.3" /><line stroke="rgb(0,0,0)" x1="45.7" x2="52.3" y1="115.0" y2="115.0" /><text x="29.2" y="111.7">D</text><text x="35.8" y="111.7">65</text><text x="29.2" y="118.3">(10,5)</text><line stroke="rgb(0,0,0)" x1="32.5" x2="32.5" y1="111.7" y2="118.3" /><line stroke="rgb(0,0,0)" x1="29.2" x2="35.8" y1="115.0" y2="115.0" /><text x="194.2" y="128.2">O</text><text x="200.8" y="128.2">66</text><text x="194.2" y="134.8">(0,6)</text><line stroke="rgb(0,0,0)" x1="197.5" x2="197.5" y1="128.2" y2="134.8" /><line stroke="rgb(0,0,0)" x1="194.2" x2="200.8" y1="131.5" y2="131.5" /><text x="177.7" y="128.2">N</text><text x="184.3" y="128.2">67</text><text x="177.7" y="134.8">(1,6)</text><line stroke="rgb(0,0,0)" x1="181.0" x2="181.0" y1="128.2" y2="134.8" /><line stroke="rgb(0,0,0)" x1="177.7" x2="184.3" y1="131.5" y2="131.5" /><text x="161.2" y="128.2">Z</text><text x="167.8" y="128.2">68</text><text x="161.2" y="134.8">(2,6)</text><line stroke="rgb(0,0,0)" x1="164.5" x2="164.5" y1="128.2" y2="134.8" /><line stroke="rgb(0,0,0)" x1="161.2" x2="167.8" y1="131.5" y2="131.5" /><text x="144.7" y="128.2">E</text><text x="151.3" y="128.2">69</text><text x="144.7" y="134.8">(3,6)</text><line stroke="rgb(0,0,0)" x1="148.0" x2="148.0" y1="128.2" y2="134.8" /><line stroke="rgb(0,0,0)" x1="144.7" x2="151.3" y1="131.5" y2="131.5" /><text x="128.2" y="128.2">@</text><text x="134.8" y="128.2">70</text><text x="128.2" y="134.8">(4,6)</text><line stroke="rgb(0,0,0)" x1="131.5" x2="131.5" y1="128.2" y2="134.8" /><line stroke="rgb(0,0,0)" x1="128.2" x2="134.8" y1="131.5" y2="131.5" /><text x="111.7" y="128.2">E</text><text x="118.3" y="128.2">71</text><text x="111.7" y="134.8">(5,6)</text><line stroke="rgb(0,0,0)" x1="115.0" x2="115.0" y1="128.2" y2="134.8" /><line stroke="rgb(0,0,0)" x1="111.7" x2="118.3" y1="131.5" y2="131.5" /><text x="95.2" y="128.2">H</text><text x="101.8" y="128.2">72</text><text x="95.2" y="134.8">(6,6)</text><line stroke="rgb(0,0,0)" x1="98.5" x2="98.5" y1="128.2" y2="134.8" /><line stroke="rgb(0,0,0)" x1="95.2" x2="101.8" y1="131.5" y2="131.5" /><text x="78.7" y="128.2">O</text><text x="85.3" y="128.2">73</text><text x="78.7" y="134.8">(7,6)</text><line stroke="rgb(0,0,0)" x1="82.0" x2="82.0" y1="128.2" y2="134.8" /><line stroke="rgb(0,0,0)" x1="78.7" x2="85.3" y1="131.5" y2="131.5" /><text x="62.2" y="128.2">R</text><text x="68.8" y="128.2">74</text><text x="62.2" y="134.8">(8,6)</text><line stroke="rgb(0,0,0)" x1="65.5" x2="65.5" y1="128.2" y2="134.8" /><line stroke="rgb(0,0,0)" x1="62.2" x2="68.8" y1="131.5" y2="131.5" /><text x="45.7" y="128.2">A</text><text x="52.3" y="128.2">75</text><text x="45.7" y="134.8">(9,6)</text><line stroke="rgb(0,0,0)" x1="49.0" x2="49.0" y1="128.2" y2="134.8" /><line stroke="rgb(0,0,0)" x1="45.7" x2="52.3" y1="131.5" y2="131.5" /><text x="29.2" y="128.2">S</text><text x="35.8" y="128.2">76</text><text x="29.2" y="134.8">(10,6)</text><line stroke="rgb(0,0,0)" x1="32.5" x2="32.5" y1="128.2" y2="134.8" /><line stroke="rgb(0,0,0)" x1="29.2" x2="35.8" y1="131.5" y2="131.5" /><text x="194.2" y="144.7">P</text><text x="200.8" y="144.7">77</text><text x="194.2" y="151.3">(0,7)</text><line stroke="rgb(0,0,0)" x1="197.5" x2="197.5" y1="144.7" y2="151.3" /><line stroke="rgb(0,0,0)" x1="194.2" x2="200.8" y1="148.0" y2="148.0" /><text x="177.7" y="144.7">M</text><text x="184.3" y="144.7">78</text><text x="177.7" y="151.3">(1,7)</text><line stroke="rgb(0,0,0)" x1="181.0" x2="181.0" y1="144.7" y2="151.3" /><line stroke="rgb(0,0,0)" x1="177.7" x2="184.3" y1="148.0" y2="148.0" /><text x="161.2" y="144.7">E</text><text x="167.8" y="144.7">79</text><text x="161.2" y="151.3">(2,7)</text><line stroke="rgb(0,0,0)" x1="164.5" x2="164.5" y1="144.7" y2="151.3" /><line stroke="rgb(0,0,0)" x1="161.2" x2="167.8" y1="148.0" y2="148.0" /><text x="144.7" y="144.7">N</text><text x="151.3" y="144.7">80</text><text x="144.7" y="151.3">(3,7)</text><line stroke="rgb(0,0,0)" x1="148.0" x2="148.0" y1="144.7" y2="151.3" /><line stroke="rgb(0,0,0)" x1="144.7" x2="151.3" y1="148.0" y2="148.0" /><text x="128.2" y="144.7">O</text><text x="134.8" y="144.7">81</text><text x="128.2" y="151.3">(4,7)</text><line stroke="rgb(0,0,0)" x1="131.5" x2="131.5" y1="144.7" y2="151.3" /><line stroke="rgb(0,0,0)" x1="128.2" x2="134.8" y1="148.0" y2="148.0" /><text x="111.7" y="144.7">S</text><text x="118.3" y="144.7">82</text><text x="111.7" y="151.3">(5,7)</text><line stroke="rgb(0,0,0)" x1="115.0" x2="115.0" y1="144.7" y2="151.3" /><line stroke="rgb(0,0,0)" x1="111.7" x2="118.3" y1="148.0" y2="148.0" /><text x="95.2" y="144.7">Q</text><text x="101.8" y="144.7">83</text><text x="95.2" y="151.3">(6,7)</text><line stroke="rgb(0,0,0)" x1="98.5" x2="98.5" y1="144.7" y2="151.3" /><line stroke="rgb(0,0,0)" x1="95.2" x2="101.8" y1="148.0" y2="148.0" /><text x="78.7" y="144.7">M</text><text x="85.3" y="144.7">84</text><text x="78.7" y="151.3">(7,7)</text><line stroke="rgb(0,0,0)" x1="82.0" x2="82.0" y1="144.7" y2="151.3" /><line stroke="rgb(0,0,0)" x1="78.7" x2="85.3" y1="148.0" y2="148.0" /><text x="62.2" y="144.7">E</text><text x="68.8" y="144.7">85</text><text x="62.2" y="151.3">(8,7)</text><line stroke="rgb(0,0,0)" x1="65.5" x2="65.5" y1="144.7" y2="151.3" /><line stroke="rgb(0,0,0)" x1="62.2" x2="68.8" y1="148.0" y2="148.0" /><text x="45.7" y="144.7">I</text><text x="52.3" y="144.7">86</text><text x="45.7" y="151.3">(9,7)</text><line stroke="rgb(0,0,0)" x1="49.0" x2="49.0" y1="144.7" y2="151.3" /><line stroke="rgb(0,0,0)" x1="45.7" x2="52.3" y1="148.0" y2="148.0" /><text x="29.2" y="144.7">A</text><text x="35.8" y="144.7">87</text><text x="29.2" y="151.3">(10,7)</text><line stroke="rgb(0,0,0)" x1="32.5" x2="32.5" y1="144.7" y2="151.3" /><line stroke="rgb(0,0,0)" x1="29.2" x2="35.8" y1="148.0" y2="148.0" /><text x="194.2" y="161.2">V</text><text x="200.8" y="161.2">88</text><text x="194.2" y="167.8">(0,8)</text><line stroke="rgb(0,0,0)" x1="197.5" x2="197.5" y1="161.2" y2="167.8" /><line stroke="rgb(0,0,0)" x1="194.2" x2="200.8" y1="164.5" y2="164.5" /><text x="177.7" y="161.2">I</text><text x="184.3" y="161.2">89</text><text x="177.7" y="167.8">(1,8)</text><line stroke="rgb(0,0,0)" x1="181.0" x2="181.0" y1="161.2" y2="167.8" /><line stroke="rgb(0,0,0)" x1="177.7" x2="184.3" y1="164.5" y2="164.5" /><text x="161.2" y="161.2">N</text><text x="167.8" y="161.2">90</text><text x="161.2" y="167.8">(2,8)</text><line stroke="rgb(0,0,0)" x1="164.5" x2="164.5" y1="161.2" y2="167.8" /><line stroke="rgb(0,0,0)" x1="161.2" x2="167.8" y1="164.5" y2="164.5" /><text x="144.7" y="161.2">T</text><text x="151.3" y="161.2">91</text><text x="144.7" y="167.8">(3,8)</text><line stroke="rgb(0,0,0)" x1="148.0" x2="148.0" y1="161.2" y2="167.8" /><line stroke="rgb(0,0,0)" x1="144.7" x2="151.3" y1="164.5" y2="164.5" /><text x="128.2" y="161.2">E</text><text x="134.8" y="161.2">92</text><text x="128.2" y="167.8">(4,8)</text><line stroke="rgb(0,0,0)" x1="131.5" x2="131.5" y1="161.2" y2="167.8" /><line stroke="rgb(0,0,0)" x1="128.2" x2="134.8" y1="164.5" y2="164.5" /><text x="111.7" y="161.2">S</text><text x="118.3" y="161.2">93</text><text x="111.7" y="167.8">(5,8)</text><line stroke="rgb(0,0,0)" x1="115.0" x2="115.0" y1="161.2" y2="167.8" /><line stroke="rgb(0,0,0)" x1="111.7" x2="118.3" y1="164.5" y2="164.5" /><text x="95.2" y="161.2">O</text><text x="101.8" y="161.2">94</text><text x="95.2" y="167.8">(6,8)</text><line stroke="rgb(0,0,0)" x1="98.5" x2="98.5" y1="161.2" y2="167.8" /><line stroke="rgb(0,0,0)" x1="95.2" x2="101.8" y1="164.5" y2="164.5" /><text x="78.7" y="161.2">L</text><text x="85.3" y="161.2">95</text><text x="78.7" y="167.8">(7,8)</text><line stroke="rgb(0,0,0)" x1="82.0" x2="82.0" y1="161.2" y2="167.8" /><line stroke="rgb(0,0,0)" x1="78.7" x2="85.3" y1="164.5" y2="164.5" /><text x="62.2" y="161.2">U</text><text x="68.8" y="161.2">96</text><text x="62.2" y="167.8">(8,8)</text><line stroke="rgb(0,0,0)" x1="65.5" x2="65.5" y1="161.2" y2="167.8" /><line stroke="rgb(0,0,0)" x1="62.2" x2="68.8" y1="164.5" y2="164.5" /><text x="45.7" y="161.2">A</text><text x="52.3" y="161.2">97</text><text x="45.7" y="167.8">(9,8)</text><line stroke="rgb(0,0,0)" x1="49.0" x2="49.0" y1="161.2" y2="167.8" /><line stroke="rgb(0,0,0)" x1="45.7" x2="52.3" y1="164.5" y2="164.5" /><text x="29.2" y="161.2">X</text><text x="35.8" y="161.2">98</text><text x="29.2" y="167.8">(10,8)</text><line stroke="rgb(0,0,0)" x1="32.5" x2="32.5" y1="161.2" y2="167.8" /><line stroke="rgb(0,0,0)" x1="29.2" x2="35.8" y1="164.5" y2="164.5" /><text x="194.2" y="177.7">E</text><text x="200.8" y="177.7">99</text><text x="194.2" y="184.3">(0,9)</text><line stroke="rgb(0,0,0)" x1="197.5" x2="197.5" y1="177.7" y2="184.3" /><line stroke="rgb(0,0,0)" x1="194.2" x2="200.8" y1="181.0" y2="181.0" /><text x="177.7" y="177.7">U</text><text x="184.3" y="177.7">100</text><text x="177.7" y="184.3">(1,9)</text><line stroke="rgb(0,0,0)" x1="181.0" x2="181.0" y1="177.7" y2="184.3" /><line stroke="rgb(0,0,0)" x1="177.7" x2="184.3" y1="181.0" y2="181.0" /><text x="161.2" y="177.7">M</text><text x="167.8" y="177.7">101</text><text x="161.2" y="184.3">(2,9)</text><line stroke="rgb(0,0,0)" x1="164.5" x2="164.5" y1="177.7" y2="184.3" /><line stroke="rgb(0,0,0)" x1="161.2" x2="167.8" y1="181.0" y2="181.0" /><text x="144.7" y="177.7">C</text><text x="151.3" y="177.7">102</text><text x="144.7" y="184.3">(3,9)</text><line stroke="rgb(0,0,0)" x1="148.0" x2="148.0" y1="177.7" y2="184.3" /><line stroke="rgb(0,0,0)" x1="144.7" x2="151.3" y1="181.0" y2="181.0" /><text x="128.2" y="177.7">I</text><text x="134.8" y="177.7">103</text><text x="128.2" y="184.3">(4,9)</text><line stroke="rgb(0,0,0)" x1="131.5" x2="131.5" y1="177.7" y2="184.3" /><line stroke="rgb(0,0,0)" x1="128.2" x2="134.8" y1="181.0" y2="181.0" /><text x="111.7" y="177.7">N</text><text x="118.3" y="177.7">104</text><text x="111.7" y="184.3">(5,9)</text><line stroke="rgb(0,0,0)" x1="115.0" x2="115.0" y1="177.7" y2="184.3" /><line stroke="rgb(0,0,0)" x1="111.7" x2="118.3" y1="181.0" y2="181.0" /><text x="95.2" y="177.7">C</text><text x="101.8" y="177.7">105</text><text x="95.2" y="184.3">(6,9)</text><line stroke="rgb(0,0,0)" x1="98.5" x2="98.5" y1="177.7" y2="184.3" /><line stroke="rgb(0,0,0)" x1="95.2" x2="101.8" y1="181.0" y2="181.0" /><text x="78.7" y="177.7">O</text><text x="85.3" y="177.7">106</text><text x="78.7" y="184.3">(7,9)</text><line stroke="rgb(0,0,0)" x1="82.0" x2="82.0" y1="177.7" y2="184.3" /><line stroke="rgb(0,0,0)" x1="78.7" x2="85.3" y1="181.0" y2="181.0" /><text x="62.2" y="177.7">D</text><text x="68.8" y="177.7">107</text><text x="62.2" y="184.3">(8,9)</text><line stroke="rgb(0,0,0)" x1="65.5" x2="65.5" y1="177.7" y2="184.3" /><line stroke="rgb(0,0,0)" x1="62.2" x2="68.8" y1="181.0" y2="181.0" /><text x="45.7" y="177.7">E</text><text x="52.3" y="177.7">108</text><text x="45.7" y="184.3">(9,9)</text><line stroke="rgb(0,0,0)" x1="49.0" x2="49.0" y1="177.7" y2="184.3" /><line stroke="rgb(0,0,0)" x1="45.7" x2="52.3" y1="181.0" y2="181.0" /><text x="29.2" y="177.7">Z</text><text x="35.8" y="177.7">109</text><text x="29.2" y="184.3">(10,9)</text><line stroke="rgb(0,0,0)" x1="32.5" x2="32.5" y1="177.7" y2="184.3" /><line stroke="rgb(0,0,0)" x1="29.2" x2="35.8" y1="181.0" y2="181.0" /><text x="194.2" y="194.2">K</text><text x="200.8" y="194.2">110</text><text x="194.2" y="200.8">(0,10)</text><line stroke="rgb(0,0,0)" x1="197.5" x2="197.5" y1="194.2" y2="200.8" /><line stroke="rgb(0,0,0)" x1="194.2" x2="200.8" y1="197.5" y2="197.5" /><text x="177.7" y="194.2">E</text><text x="184.3" y="194.2">111</text><text x="177.7" y="200.8">(1,10)</text><line stroke="rgb(0,0,0)" x1="181.0" x2="181.0" y1="194.2" y2="200.8" /><line stroke="rgb(0,0,0)" x1="177.7" x2="184.3" y1="197.5" y2="197.5" /><text x="161.2" y="194.2">U</text><text x="167.8" y="194.2">112</text><text x="161.2" y="200.8">(2,10)</text><line stroke="rgb(0,0,0)" x1="164.5" x2="164.5" y1="194.2" y2="200.8" /><line stroke="rgb(0,0,0)" x1="161.2" x2="167.8" y1="197.5" y2="197.5" /><text x="144.7" y="194.2">D</text><text x="151.3" y="194.2">113</text><text x="144.7" y="200.8">(3,10)</text><line stroke="rgb(0,0,0)" x1="148.0" x2="148.0" y1="194.2" y2="200.8" /><line stroke="rgb(0,0,0)" x1="144.7" x2="151.3" y1="197.5" y2="197.5" /><text x="128.2" y="194.2">E</text><text x="134.8" y="194.2">114</text><text x="128.2" y="200.8">(4,10)</text><line stroke="rgb(0,0,0)" x1="131.5" x2="131.5" y1="194.2" y2="200.8" /><line stroke="rgb(0,0,0)" x1="128.2" x2="134.8" y1="197.5" y2="197.5" /><text x="111.7" y="194.2">Q</text><text x="118.3" y="194.2">115</text><text x="111.7" y="200.8">(5,10)</text><line stroke="rgb(0,0,0)" x1="115.0" x2="115.0" y1="194.2" y2="200.8" /><line stroke="rgb(0,0,0)" x1="111.7" x2="118.3" y1="197.5" y2="197.5" /><text x="95.2" y="194.2">U</text><text x="101.8" y="194.2">116</text><text x="95.2" y="200.8">(6,10)</text><line stroke="rgb(0,0,0)" x1="98.5" x2="98.5" y1="194.2" y2="200.8" /><line stroke="rgb(0,0,0)" x1="95.2" x2="101.8" y1="197.5" y2="197.5" /><text x="78.7" y="194.2">A</text><text x="85.3" y="194.2">117</text><text x="78.7" y="200.8">(7,10)</text><line stroke="rgb(0,0,0)" x1="82.0" x2="82.0" y1="194.2" y2="200.8" /><line stroke="rgb(0,0,0)" x1="78.7" x2="85.3" y1="197.5" y2="197.5" /><text x="62.2" y="194.2">R</text><text x="68.8" y="194.2">118</text><text x="62.2" y="200.8">(8,10)</text><line stroke="rgb(0,0,0)" x1="65.5" x2="65.5" y1="194.2" y2="200.8" /><line stroke="rgb(0,0,0)" x1="62.2" x2="68.8" y1="197.5" y2="197.5" /><text x="45.7" y="194.2">T</text><text x="52.3" y="194.2">119</text><text x="45.7" y="200.8">(9,10)</text><line stroke="rgb(0,0,0)" x1="49.0" x2="49.0" y1="194.2" y2="200.8" /><line stroke="rgb(0,0,0)" x1="45.7" x2="52.3" y1="197.5" y2="197.5" /><text x="29.2" y="194.2">O</text><text x="35.8" y="194.2">120</text><text x="29.2" y="200.8">(10,10)</text><line stroke="rgb(0,0,0)" x1="32.5" x2="32.5" y1="194.2" y2="200.8" /><line stroke="rgb(0,0,0)" x1="29.2" x2="35.8" y1="197.5" y2="197.5" /><text fill="rgb(0,0,0)" x="211.7" y="11.7">1</text><line stroke="rgb(0,0,0)" x1="215.0" x2="215.0" y1="11.7" y2="18.3" /><line stroke="rgb(0,0,0)" x1="211.7" x2="218.3" y1="15.0" y2="15.0" /><text fill="rgb(0,0,0)" x="11.7" y="11.7">2</text><line stroke="rgb(0,0,0)" x1="15.0" x2="15.0" y1="11.7" y2="18.3" /><line stroke="rgb(0,0,0)" x1="11.7" x2="18.3" y1="15.0" y2="15.0" /><text fill="rgb(0,0,0)" x="211.7" y="211.7">3</text><line stroke="rgb(0,0,0)" x1="215.0" x2="215.0" y1="211.7" y2="218.3" /><line stroke="rgb(0,0,0)" x1="211.7" x2="218.3" y1="215.0" y2="215.0" /><text fill="rgb(0,0,0)" x="11.7" y="211.7">4</text><line stroke="rgb(0,0,0)" x1="15.0" x2="15.0" y1="211.7" y2="218.3" /><line stroke="rgb(0,0,0)" x1="11.7" x2="18.3" y1="215.0" y2="215.0" /></g></svg>